<svg xmlns="http://www.w3.org/2000/svg" xmlns:xlink="http://www.w3.org/1999/xlink" width="500" zoomAndPan="magnify" viewBox="0 0 375 374.999991" height="500" preserveAspectRatio="xMidYMid meet" version="1.0"><defs><clipPath id="7adf4588dd"><path d="M 94.300781 93.949219 L 280.699219 93.949219 L 280.699219 280.699219 L 94.300781 280.699219 Z M 94.300781 93.949219 " clip-rule="nonzero"/></clipPath></defs><rect x="-37.5" width="450" fill="#ffffff" y="-37.499999" height="449.999989" fill-opacity="1"/><rect x="-37.5" width="450" fill="#0e2442" y="-37.499999" height="449.999989" fill-opacity="1"/><g clip-path="url(#7adf4588dd)"><path fill="#ffffff" d="M 187.5 187.5 L 281.050781 93.949219 L 281.050781 254.011719 L 261.929688 234.886719 L 261.929688 140.109375 L 201.015625 201.015625 L 281.050781 281.050781 L 254.011719 281.050781 L 113.070312 140.109375 L 113.070312 173.363281 L 220.757812 281.050781 L 193.71875 281.050781 L 113.070312 200.402344 L 113.070312 233.660156 L 160.460938 281.050781 L 133.417969 281.050781 L 113.070312 260.699219 L 113.070312 281.050781 L 93.949219 281.050781 L 93.949219 93.949219 Z M 187.5 187.5 " fill-opacity="1" fill-rule="nonzero"/></g></svg>